<svg xmlns="http://www.w3.org/2000/svg" viewBox="0 0 2600 2600">
  <g>
    <polygon fill="#FBE601" points="-3.87,3.86 2596.13,3.86 2596.13,2603.86 -3.87,2603.86 "/>
    <g>
      <path fill="black" fill-rule="nonzero" d="M296.13 1357.5l0 -579.99 176.45 0 0 206.08 99.14 0 0 -206.08 176.45 0 0 579.99 -176.45 0 0 -203.74 -99.14 0 0 203.74 -176.45 0zm628.38 0l0 -386.4 -119.08 0 0 -193.59 415.87 0 0 193.59 -119.09 0 0 386.4 -177.7 0zm501.08 -366.24c3.54,30.45 6.03,63.62 7.7,99.53 1.55,35.78 2.38,75.98 2.38,120.74l0 145.97 -155.87 0 0 -579.99 218.22 0 45.63 159.24c6.13,21.86 11.22,44.37 15.37,67.52 4.16,23.03 7.28,46.97 9.36,71.56l3.95 -0.39c1.35,-20.56 4.26,-42.15 8.63,-64.92 4.36,-22.77 10.59,-48.01 18.69,-75.98l44.17 -157.03 213.34 0 0 579.99 -155.88 0 0 -145.97c0,-42.42 0.84,-81.84 2.61,-118.14 1.66,-36.29 4.36,-70.38 8.1,-102.13l-7.69 0c-4.68,26.93 -9.76,53.35 -15.48,79.24 -5.71,26.02 -12.16,51.91 -19.44,77.8l-57.87 209.2 -87.3 0 -56.63 -209.2c-9.25,-34.61 -16.63,-64.14 -22.03,-88.6 -5.4,-24.59 -9.67,-47.36 -12.89,-68.44l-7.07 0zm516.37 366.24l0 -579.99 177.7 0 0 391.86 176.45 0 0 188.13 -354.15 0z"/>
      <path fill="black" fill-rule="nonzero" d="M390.53 1581.78c28.61,-29.11 52.71,-48.89 95.11,-48.89 37.04,0 64.21,15.94 73.02,53.34 25.92,-29.17 55.4,-53.34 96.31,-53.34 68.41,0 86.54,42.23 86.54,104.14l0 150.49 42.97 0 0 43.82 -136.16 0 0 -43.82 41.75 0 0 -130.7c0,-29.95 -3.43,-49.95 -10.38,-60.01 -6.87,-10.05 -18.56,-15.03 -35.1,-15.03 -35.22,0 -62.09,23.29 -78.57,52.71l0 153.03 42.96 0 0 43.82 -137.36 0 0 -43.82 42.96 0 0 -130.7c0,-29.53 -3.23,-49.42 -9.79,-59.69 -6.45,-10.27 -17.44,-15.35 -33.07,-15.35 -34.65,0 -60.75,24.97 -81.19,50.28l0 155.46 41.75 0 0 43.82 -136.15 0 0 -43.82 42.96 0 0 -203.2 -42.96 0 0 -43.81 94.4 0 0 41.27zm473.83 104.14c0,56.05 35.19,107.32 94.9,107.32 59.85,0 94.71,-51.22 94.71,-107.32 0,-56.2 -34.94,-106.68 -94.71,-106.68 -60.71,0 -94.9,49.61 -94.9,106.68zm237.82 101.6l42.36 0 0 43.82 -94.4 0 0 -38.74c-23.87,32.04 -58.59,45.73 -97.84,45.73 -40.34,0 -74.22,-14.61 -101.46,-43.82 -27.33,-29.21 -40.94,-65.41 -40.94,-108.59 0,-43.18 13.71,-79.48 41.05,-108.9 27.43,-29.42 61.21,-44.13 101.35,-44.13 39.89,0 72.55,14.67 97.84,45.72l0 -38.1 94.4 0 0 43.81 -42.36 0 0 203.2zm174.39 -240.41l0 124.21 104.18 -87 -38.22 0 0 -43.81 131.31 0 0 43.81 -30.15 0 -108.53 91.97 106.2 111.23 32.48 0 0 43.82 -128.89 0 0 -43.82 33.98 0 -102.36 -105.93 0 105.93 35.7 0 0 43.82 -128.29 0 0 -43.82 42.36 0 0 -238.31c16.67,3.21 33.98,2.42 50.23,-2.1zm275.34 112.14l186.38 0c-7.75,-52.62 -39.53,-81.91 -93.19,-81.91 -53.68,0 -85.42,29.29 -93.19,81.91zm233.48 85.73c-25.36,57.83 -77.27,93.98 -140.89,93.98 -92.71,0 -146.44,-66.52 -146.44,-156.1 0,-89.6 56.46,-149.97 147.04,-149.97 95.34,0 147.06,71.54 147.06,162.03l0 6.88 -240.25 0c4.1,55.47 44.88,91.44 100.05,91.44 35.95,0 66.39,-17.74 85.12,-48.26l48.31 0zm138.69 -158.75c20.75,-37.6 49.11,-53.98 91.98,-53.98 4.01,0 8.07,0.64 12.1,0.64l0 48.89c-30.02,0 -57.3,0.57 -80.38,23.39 -15.84,15.67 -23.7,37.47 -23.7,65.62l0 116.73 42.96 0 0 43.82 -137.37 0 0 -43.82 42.97 0 0 -203.2 -42.97 0 0 -43.81 94.41 0 0 45.72zm169.33 245.11l-40.55 0 0 -94.62 40.55 0c15.97,38.53 54.35,59.06 95,59.06 26.64,0 60.52,-11.46 60.52,-43.18 0,-25.46 -20.32,-32.28 -41.86,-36.3l-65.35 -12.17c-49.73,-8.75 -87.65,-30.64 -87.65,-86.04 0,-71.26 68.86,-92.87 128.22,-83.04 -7.74,11.2 -11.1,25.41 -7.85,39.39 -30.07,-5.31 -73.17,2.07 -73.17,40.47 0,25.65 23.96,33.29 45.18,37.15l57.1 10.26c51.33,9.14 92.58,24.13 92.58,83.4 0,62.07 -50.02,93.24 -107.52,93.24 -36.98,0 -67.7,-12.07 -95.2,-36.72l0 29.1zm-866.83 -246.99l-42.34 0 0 -43.84 92.53 0 0 164.68 -50.19 0 0 -120.84zm1043 108.07l-159.47 0c-14.73,-35.78 -28.67,-75.42 -48.13,-108.71 17.01,-34.33 55.61,-51.56 98.35,-51.56 36.98,0 67.7,12.07 95.2,36.72l0 -29.1 40.55 0 0 94.62 -40.55 0c-15.97,-38.53 -54.35,-59.06 -95,-59.06 -26.64,0 -60.52,11.46 -60.52,43.18 0,25.46 20.32,32.28 41.86,36.3l65.35 12.17c24.81,4.37 46.67,12 62.36,25.44z"/>
    </g>
  </g>
</svg>
